<svg width="512" height="512" xmlns="http://www.w3.org/2000/svg">

 <g>
  <title>Layer 1</title>
  <g id="svg_1">
   <g id="svg_2">
    <polygon fill="#426373" id="svg_3" points="125.815,76 95.801,166 124.189,166 154.182,76   "/>
   </g>
  </g>
  <g id="svg_4">
   <g id="svg_5">
    <path fill="#426373" id="svg_6" d="m497,76l-15,0l0,-15c0,-8.291 -6.709,-15 -15,-15c-8.291,0 -15,6.709 -15,15l0,15l-266.185,0l-29.996,90l356.181,0l0,-75c0,-8.291 -6.709,-15 -15,-15z"/>
   </g>
  </g>
  <g id="svg_7">
   <g id="svg_8">
    <path fill="#426373" id="svg_9" d="m45,76c-8.291,0 -15,6.709 -15,15c0,8.276 -6.738,15 -15,15c-8.291,0 -15,6.709 -15,15l0,45l64.182,0l30,-90l-49.182,0z"/>
   </g>
  </g>
  <g id="svg_10">
   <g id="svg_11">
    <path fill="#426373" id="svg_12" d="m0,196l0,15c0,8.291 6.709,15 15,15c8.262,0 15,6.724 15.146,12.876l-24.907,175.752c-3.86,27.053 17.033,51.372 44.361,51.372l59.004,0c22.559,0 41.748,-16.89 44.648,-39.287l10.342,-80.713l61.406,0c24.814,0 45,-20.186 45,-45l0,-45l167,0c5.684,0 10.869,-3.208 13.418,-8.291l25.854,-51.709c-362.944,0 -282.002,0 -476.272,0zm180,120c-16.553,0 -30,-13.462 -30,-30c0,-16.538 13.447,-30 30,-30l0.996,0c-4.131,13.239 -4.871,27.42 -1.23,41.074c1.798,6.79 4.834,13.017 8.379,18.926l-8.145,0zm60,-15c0,7.132 -5.105,12.83 -11.774,14.348c-9.481,-5.92 -16.564,-15.066 -19.486,-25.964c-3.01,-11.34 -1.187,-23.297 4.636,-33.384l26.624,0l0,45z"/>
   </g>
  </g>
  <g id="svg_13"/>
  <g id="svg_14"/>
  <g id="svg_15"/>
  <g id="svg_16"/>
  <g id="svg_17"/>
  <g id="svg_18"/>
  <g id="svg_19"/>
  <g id="svg_20"/>
  <g id="svg_21"/>
  <g id="svg_22"/>
  <g id="svg_23"/>
  <g id="svg_24"/>
  <g id="svg_25"/>
  <g id="svg_26"/>
  <g id="svg_27"/>
 </g>
</svg>