<svg width="512" height="512.00082" xmlns="http://www.w3.org/2000/svg">

 <g>
  <title>Layer 1</title>
  <path transform="rotate(145.987 252.849 259.94)" fill="#6D97AB" stroke="null" id="svg_1" d="m194.64044,174.389c-8.30543,-45.13171 -42.0065,-88.88477 -89.79521,-124.59623c-8.55068,-6.38794 -9.8736,-18.69928 -2.96171,-26.83377c5.89369,-6.93791 15.94939,-8.599 23.73456,-3.87959c27.78137,16.84125 86.03826,64.93467 112.97979,145.34308c6.23185,18.5878 33.17339,9.20471 27.23511,-8.61386c-13.19578,-39.59476 -34.53719,-76.07546 -62.15505,-107.04151c62.17734,-0.72092 86.93755,41.92103 104.99766,137.5096c3.50426,18.55064 31.6498,13.5711 27.98203,-5.72647c-6.29874,-33.16968 -19.26784,-79.75067 -40.3194,-107.85533c2.15161,-0.0446 71.63847,-9.80672 84.00929,126.50258c1.69824,18.75502 30.20796,16.64429 28.39823,-3.05833c-0.3233,-3.48939 -0.68376,-6.97507 -1.08881,-10.45331c-3.35933,-28.97794 -11.87286,-55.38807 -22.34475,-82.04347c24.89769,10.24892 116.10129,102.86835 33.31831,290.8348c-12.36337,28.17526 -22.98763,25.9642 -22.84271,94.66697c0.01487,7.90781 -6.37678,14.3329 -14.28458,14.3329l-171.3556,0c-7.88551,0 -14.28087,-6.39165 -14.28087,-14.27715l0,-15.71156c0,-0.28242 -0.56856,-9.29761 -0.78409,-12.98024c-9.48713,-161.66779 -114.26183,-214.56239 -133.73035,-240.81644c-11.06647,-11.06648 -11.07019,-29.49076 0,-40.55724c10.85094,-10.85465 29.70258,-10.56851 40.55352,0c-3.53398,-3.53398 34.50746,34.50375 63.34791,63.34792c18.16789,-5.74134 31.37853,-26.56621 31.37853,-46.6293c0,-7.17202 -0.68005,-14.33661 -1.99182,-21.46404zm0,0"/>
 </g>
</svg>